<svg width="27" height="27" viewBox="0 0 27 27" fill="none" xmlns="http://www.w3.org/2000/svg">
<path d="M13.5 26.5C16.9478 26.5 20.2544 25.1304 22.6924 22.6924C25.1304 20.2544 26.5 16.9478 26.5 13.5C26.5 10.0522 25.1304 6.74558 22.6924 4.30761C20.2544 1.86964 16.9478 0.5 13.5 0.5C10.0522 0.5 6.74558 1.86964 4.30761 4.30761C1.86964 6.74558 0.5 10.0522 0.5 13.5C0.5 16.9478 1.86964 20.2544 4.30761 22.6924C6.74558 25.1304 10.0522 26.5 13.5 26.5ZM8.8332 17.0293C9.74219 18.0805 11.2961 19.1875 13.5 19.1875C15.7039 19.1875 17.2578 18.0805 18.1668 17.0293C18.4613 16.6891 18.9742 16.6535 19.3145 16.948C19.6547 17.2426 19.6902 17.7555 19.3957 18.0957C18.2633 19.3957 16.298 20.8125 13.5 20.8125C10.702 20.8125 8.73672 19.3957 7.6043 18.0957C7.30977 17.7555 7.34531 17.2426 7.68555 16.948C8.02578 16.6535 8.53867 16.6891 8.8332 17.0293ZM7.83281 11.0625C7.83281 10.6315 8.00402 10.2182 8.30876 9.91345C8.61351 9.60871 9.02684 9.4375 9.45781 9.4375C9.88879 9.4375 10.3021 9.60871 10.6069 9.91345C10.9116 10.2182 11.0828 10.6315 11.0828 11.0625C11.0828 11.4935 10.9116 11.9068 10.6069 12.2115C10.3021 12.5163 9.88879 12.6875 9.45781 12.6875C9.02684 12.6875 8.61351 12.5163 8.30876 12.2115C8.00402 11.9068 7.83281 11.4935 7.83281 11.0625ZM17.5828 9.4375C18.0138 9.4375 18.4271 9.60871 18.7319 9.91345C19.0366 10.2182 19.2078 10.6315 19.2078 11.0625C19.2078 11.4935 19.0366 11.9068 18.7319 12.2115C18.4271 12.5163 18.0138 12.6875 17.5828 12.6875C17.1518 12.6875 16.7385 12.5163 16.4338 12.2115C16.129 11.9068 15.9578 11.4935 15.9578 11.0625C15.9578 10.6315 16.129 10.2182 16.4338 9.91345C16.7385 9.60871 17.1518 9.4375 17.5828 9.4375Z" fill="white"/>
</svg>
