<svg width="35" height="25" viewBox="0 0 35 25" fill="none" xmlns="http://www.w3.org/2000/svg">
<path d="M0.5 16.7857C0.5 21.0446 3.92656 24.5 8.15 24.5H27.7C31.4559 24.5 34.5 21.4304 34.5 17.6429C34.5 14.3268 32.1625 11.5571 29.06 10.925C29.2778 10.3518 29.4 9.725 29.4 9.07143C29.4 6.23214 27.1156 3.92857 24.3 3.92857C23.2534 3.92857 22.2759 4.25 21.4684 4.79643C19.9969 2.225 17.2503 0.5 14.1 0.5C9.40375 0.5 5.6 4.33571 5.6 9.07143C5.6 9.21607 5.60531 9.36071 5.61062 9.50536C2.63562 10.5607 0.5 13.4214 0.5 16.7857Z" fill="white"/>
</svg>
