<svg width="59" height="60" viewBox="0 0 59 60" fill="none" xmlns="http://www.w3.org/2000/svg">
<rect y="0.5" width="59" height="59" rx="4" fill="#F4F4F4"/>
<path d="M25.7812 14.5C27.5918 14.5 29.0625 15.9707 29.0625 17.7812V41.2188C29.0625 43.0293 27.5918 44.5 25.7812 44.5C24.0879 44.5 22.6934 43.2168 22.5176 41.5645C22.2129 41.6465 21.8906 41.6875 21.5625 41.6875C19.4941 41.6875 17.8125 40.0059 17.8125 37.9375C17.8125 37.5039 17.8887 37.082 18.0234 36.6953C16.2539 36.0273 15 34.3164 15 32.3125C15 30.4434 16.0957 28.8262 17.6836 28.0762C17.1738 27.4375 16.875 26.6289 16.875 25.75C16.875 23.9512 18.1406 22.4512 19.8281 22.082C19.7344 21.7598 19.6875 21.4141 19.6875 21.0625C19.6875 19.3105 20.8945 17.834 22.5176 17.4238C22.6934 15.7832 24.0879 14.5 25.7812 14.5ZM34.2188 14.5C35.9121 14.5 37.3008 15.7832 37.4824 17.4238C39.1113 17.834 40.3125 19.3047 40.3125 21.0625C40.3125 21.4141 40.2656 21.7598 40.1719 22.082C41.8594 22.4453 43.125 23.9512 43.125 25.75C43.125 26.6289 42.8262 27.4375 42.3164 28.0762C43.9043 28.8262 45 30.4434 45 32.3125C45 34.3164 43.7461 36.0273 41.9766 36.6953C42.1113 37.082 42.1875 37.5039 42.1875 37.9375C42.1875 40.0059 40.5059 41.6875 38.4375 41.6875C38.1094 41.6875 37.7871 41.6465 37.4824 41.5645C37.3066 43.2168 35.9121 44.5 34.2188 44.5C32.4082 44.5 30.9375 43.0293 30.9375 41.2188V17.7812C30.9375 15.9707 32.4082 14.5 34.2188 14.5Z" fill="#888888"/>
</svg>
