<svg width="23" height="29" viewBox="0 0 23 29" fill="none" xmlns="http://www.w3.org/2000/svg">
<path d="M12.8578 28.3484C15.7969 24.7026 22.5 15.8665 22.5 10.9032C22.5 4.88373 17.5729 0 11.5 0C5.42708 0 0.5 4.88373 0.5 10.9032C0.5 15.8665 7.20313 24.7026 10.1422 28.3484C10.8469 29.2172 12.1531 29.2172 12.8578 28.3484ZM11.5 7.26881C12.4725 7.26881 13.4051 7.65172 14.0927 8.3333C14.7804 9.01489 15.1667 9.93931 15.1667 10.9032C15.1667 11.8671 14.7804 12.7915 14.0927 13.4731C13.4051 14.1547 12.4725 14.5376 11.5 14.5376C10.5275 14.5376 9.59491 14.1547 8.90728 13.4731C8.21964 12.7915 7.83333 11.8671 7.83333 10.9032C7.83333 9.93931 8.21964 9.01489 8.90728 8.3333C9.59491 7.65172 10.5275 7.26881 11.5 7.26881Z" fill="white"/>
</svg>
