<svg width="59" height="60" viewBox="0 0 59 60" fill="none" xmlns="http://www.w3.org/2000/svg">
<rect y="0.5" width="59" height="59" rx="4" fill="#F4F4F4"/>
<path d="M45 29.5C45 29.5527 45 29.6055 45 29.6582C44.9766 31.7969 43.0312 33.25 40.8926 33.25H35.1562C33.6035 33.25 32.3438 34.5098 32.3438 36.0625C32.3438 36.2617 32.3672 36.4551 32.4023 36.6426C32.5254 37.2402 32.7832 37.8145 33.0352 38.3945C33.3926 39.2031 33.7441 40.0059 33.7441 40.8555C33.7441 42.7187 32.4785 44.4121 30.6152 44.4883C30.4102 44.4941 30.2051 44.5 29.9941 44.5C21.7148 44.5 15 37.7852 15 29.5C15 21.2148 21.7148 14.5 30 14.5C38.2852 14.5 45 21.2148 45 29.5ZM22.5 31.375C22.5 30.8777 22.3025 30.4008 21.9508 30.0492C21.5992 29.6975 21.1223 29.5 20.625 29.5C20.1277 29.5 19.6508 29.6975 19.2992 30.0492C18.9475 30.4008 18.75 30.8777 18.75 31.375C18.75 31.8723 18.9475 32.3492 19.2992 32.7008C19.6508 33.0525 20.1277 33.25 20.625 33.25C21.1223 33.25 21.5992 33.0525 21.9508 32.7008C22.3025 32.3492 22.5 31.8723 22.5 31.375ZM22.5 25.75C22.9973 25.75 23.4742 25.5525 23.8258 25.2008C24.1775 24.8492 24.375 24.3723 24.375 23.875C24.375 23.3777 24.1775 22.9008 23.8258 22.5492C23.4742 22.1975 22.9973 22 22.5 22C22.0027 22 21.5258 22.1975 21.1742 22.5492C20.8225 22.9008 20.625 23.3777 20.625 23.875C20.625 24.3723 20.8225 24.8492 21.1742 25.2008C21.5258 25.5525 22.0027 25.75 22.5 25.75ZM31.875 20.125C31.875 19.6277 31.6775 19.1508 31.3258 18.7992C30.9742 18.4475 30.4973 18.25 30 18.25C29.5027 18.25 29.0258 18.4475 28.6742 18.7992C28.3225 19.1508 28.125 19.6277 28.125 20.125C28.125 20.6223 28.3225 21.0992 28.6742 21.4508C29.0258 21.8025 29.5027 22 30 22C30.4973 22 30.9742 21.8025 31.3258 21.4508C31.6775 21.0992 31.875 20.6223 31.875 20.125ZM37.5 25.75C37.9973 25.75 38.4742 25.5525 38.8258 25.2008C39.1775 24.8492 39.375 24.3723 39.375 23.875C39.375 23.3777 39.1775 22.9008 38.8258 22.5492C38.4742 22.1975 37.9973 22 37.5 22C37.0027 22 36.5258 22.1975 36.1742 22.5492C35.8225 22.9008 35.625 23.3777 35.625 23.875C35.625 24.3723 35.8225 24.8492 36.1742 25.2008C36.5258 25.5525 37.0027 25.75 37.5 25.75Z" fill="#888888"/>
</svg>
