<svg width="165" height="45" viewBox="0 0 165 45" fill="none" xmlns="http://www.w3.org/2000/svg">
<path d="M0.619355 28.4474L0 25.7631C5.52258 22.8158 9.34194 24.0789 12.2839 24.8684C15.2258 25.6579 18.0645 28.8158 23.9484 32.1842C29.8323 35.5526 35.2 33.8684 36.0774 33.8684C36.7794 33.8684 37.1613 34.114 37.2645 34.2368C36.8103 34.6158 36.0258 35.1316 32.7742 36.0789C29.1018 37.1489 26.1677 35.2368 22.0903 34.2368C18.0129 33.2368 16.2581 35.3421 11.5613 36.1316C7.80387 36.7631 4.21505 35.2719 2.89032 34.4474L3.40645 33.6053C10.0129 35.1842 15.7075 32.1842 16.8258 30.8158C9.6 25.0263 2.75269 26.7807 0.619355 28.4474Z" fill="#373737"/>
<path d="M1.96129 33.4474L0.722581 30.4474C1.35914 29.9035 3.37548 28.8158 6.34839 28.8158C9.32129 28.8158 12.3699 30.4649 13.5226 31.2895L9.49677 32.5C5.31613 30.5526 2.89032 32.3421 1.96129 33.4474Z" fill="#373737"/>
<path d="M13.3677 40.1842C9.44516 41.5316 6.36559 39.3772 5.31613 38.1316C6.8129 38.7105 10.6323 39.0789 14.0387 37.1842C17.4452 35.2895 23.9484 35.8684 25.4968 37.1842C28.4697 39.2053 33.0667 38.6579 34.9935 38.1316C33.4452 40.3947 29.0065 41.6579 24.9806 39.7105C20.9548 37.7632 18.271 38.5 13.3677 40.1842Z" fill="#373737"/>
<path d="M15.329 44.5L14.0387 41.9211C15.2258 41.3421 19.4065 40.2368 21.6258 40.8684C26.1677 42.3421 27.7677 42.4825 29.5226 42.7105C28.3527 43.307 25.569 44.3947 23.7935 43.9737C19.6129 42.7632 16.1892 43.7456 15.329 44.5Z" fill="#373737"/>
<path d="M24.8258 31.0789L22.5032 29.3421C23.7247 28.0789 27.1587 25.3842 31.1226 24.7105C35.0865 24.0368 38.6925 25.2017 40 25.8684L39.5355 28.6053C32 25.7105 26.7355 28.9561 24.8258 31.0789Z" fill="#373737"/>
<path d="M8.87742 23.0789C8.87742 23.0789 8.15484 19.921 8.15484 18.5526C8.08098 14.1842 13.3677 9.55263 13.3677 9.55263C13.3677 9.55263 10.6323 16.0263 11.7677 22.9211L8.87742 23.0789Z" fill="#373737"/>
<path d="M19.5613 26.6579C16.5677 24.0263 15.6215 23.8333 14.0387 23.0789C13.8151 21.5702 13.5742 17.3211 14.4 12.3947C15.2258 7.46842 18.8387 2.41228 20.5419 0.5C21.5742 2.76316 22.6237 4.20175 23.4323 5.02632C23.1226 5.27193 22.0181 7.08947 20.0774 12.3947C18.1368 17.7 18.9247 24.114 19.5613 26.6579Z" fill="#373737"/>
<path d="M25.7548 24.8684C27.0968 15.2895 25.1527 11.2017 23.6903 8.65789C23.1742 9.85088 21.9974 13.0368 21.4194 16.2368C20.8413 19.4368 20.8344 25.7105 20.9032 28.4474L25.7548 24.8684Z" fill="#373737"/>
<path d="M28.129 23.9737C28.9032 15.9211 27.3204 11.8158 26.3226 10.1316C30.6581 12.7105 32.0516 17.0789 32.1032 18.5C32.1445 19.6368 31.7075 22.1316 31.4839 23.2368L28.129 23.9737Z" fill="#373737"/>
<path d="M32.7742 32.1842C30.9987 32.521 28.0086 32.0439 26.7355 31.7632C28.4903 31.0789 30.0387 28.9737 33.8581 28.921C36.9135 28.8789 38.6409 29.9912 39.1226 30.5526L38.0387 33.2368C36.5419 31.921 34.9935 31.7632 32.7742 32.1842Z" fill="#373737"/>
<path d="M51.2329 30.9868C52.1688 30.9054 52.7344 30.7671 52.9297 30.5718C53.125 30.3683 53.243 30.1486 53.2837 29.9126C53.3244 29.6685 53.3447 29.3511 53.3447 28.9604V13.9946C53.3447 13.2134 53.1982 12.7129 52.9053 12.4932C52.71 12.3467 52.1525 12.2287 51.2329 12.1392V11.126H57.9346V12.1392C57.0231 12.2287 56.4779 12.3385 56.2988 12.4688C55.9896 12.6885 55.835 13.1971 55.835 13.9946V18.5112C56.5837 17.7137 57.5846 17.1847 58.8379 16.9243C59.2367 16.8429 59.6965 16.8022 60.2173 16.8022C60.7463 16.8022 61.2915 16.904 61.853 17.1074C62.4146 17.3027 62.9232 17.5754 63.3789 17.9253C63.8346 18.2752 64.2375 18.6903 64.5874 19.1704C64.9373 19.6424 65.2262 20.1592 65.4541 20.7207C65.9342 21.8844 66.1743 23.1174 66.1743 24.4194C66.1743 26.5353 65.5924 28.3542 64.4287 29.876C63.6312 30.9095 62.6139 31.6338 61.377 32.0488C60.7503 32.2604 60.1481 32.3662 59.5703 32.3662C58.8216 32.3662 58.0404 32.3255 57.2266 32.2441C55.7048 32.0814 54.7648 32 54.4067 32H51.2329V30.9868ZM55.835 28.4233C55.835 29.1965 56.0547 29.7865 56.4941 30.1934C57.0638 30.6979 58.0241 30.9502 59.375 30.9502C60.7259 30.9502 61.7594 30.291 62.4756 28.9727C63.1104 27.8333 63.4277 26.3156 63.4277 24.4194C63.4277 21.6688 62.8174 19.793 61.5967 18.792C61.141 18.4176 60.612 18.2305 60.0098 18.2305C59.4076 18.2305 58.8623 18.32 58.374 18.499C57.8857 18.6781 57.4544 18.9222 57.0801 19.2314C56.25 19.9069 55.835 20.7085 55.835 21.6362V28.4233ZM79.6631 30.1812C78.5482 31.5565 76.8758 32.2441 74.646 32.2441C72.4976 32.2441 70.8171 31.5483 69.6045 30.1567C68.4408 28.814 67.8589 27.0399 67.8589 24.8345C67.8589 22.564 68.5059 20.6882 69.7998 19.207C71.0856 17.7422 72.7336 17.0098 74.7437 17.0098C76.2817 17.0098 77.4821 17.3353 78.3447 17.9863C79.1667 18.5967 79.5776 19.4349 79.5776 20.501C79.5776 21.8763 78.9103 23.036 77.5757 23.98C76.0213 25.0786 73.6694 25.6401 70.52 25.6646C70.8049 28.993 72.3104 30.6572 75.0366 30.6572C76.7456 30.6572 78.0558 30.2666 78.9673 29.4854L79.6631 30.1812ZM70.4834 24.3584C73.3805 24.3014 75.3418 23.6138 76.3672 22.2954C76.7415 21.8071 76.9287 21.2008 76.9287 20.4766C76.9287 19.5326 76.5218 18.8815 75.708 18.5234C75.3906 18.3851 74.9959 18.3159 74.5239 18.3159C74.0519 18.3159 73.6328 18.4014 73.2666 18.5723C72.9004 18.735 72.5708 18.9629 72.2778 19.2559C71.9849 19.5407 71.7285 19.8784 71.5088 20.269C71.2891 20.6515 71.106 21.0666 70.9595 21.5142C70.6584 22.4338 70.4997 23.3818 70.4834 24.3584ZM91.1621 21.0869C91.4714 20.6068 91.626 20.1755 91.626 19.793C91.626 19.4023 91.394 19.0605 90.9302 18.7676C90.4744 18.4665 89.9292 18.3159 89.2944 18.3159C88.6597 18.3159 88.1714 18.3729 87.8296 18.4868C87.4878 18.6007 87.1989 18.7594 86.9629 18.9629C86.499 19.3617 86.2671 19.8947 86.2671 20.562C86.2671 21.3677 86.9425 22.1123 88.2935 22.7959C88.6841 22.9993 89.0137 23.1621 89.2822 23.2842C91.3411 24.2119 92.6473 24.8996 93.2007 25.3472C93.7541 25.7866 94.1528 26.2098 94.397 26.6167C94.6493 27.0236 94.7754 27.5282 94.7754 28.1304C94.7754 28.7326 94.6086 29.2982 94.2749 29.8271C93.9412 30.3561 93.4977 30.8037 92.9443 31.1699C91.8213 31.9186 90.4704 32.293 88.8916 32.293C87.4186 32.293 86.1328 31.9919 85.0342 31.3896C83.8298 30.7467 83.2438 29.9289 83.2764 28.936C83.2926 28.3501 83.5449 27.8252 84.0332 27.3613C84.4727 26.9463 84.9976 26.6696 85.6079 26.5312L86.145 27.1538C85.8358 27.5363 85.6812 28.049 85.6812 28.6919C85.6812 29.2534 85.9741 29.7539 86.5601 30.1934C87.2111 30.6898 88.0412 30.938 89.0503 30.938C90.0675 30.938 90.8651 30.7101 91.4429 30.2544C92.0288 29.7987 92.3218 29.1883 92.3218 28.4233C92.3218 27.5282 91.5731 26.7388 90.0757 26.0552C89.6281 25.8517 89.2619 25.693 88.9771 25.5791C88.6922 25.457 88.5132 25.3797 88.4399 25.3472C88.3667 25.3146 88.1632 25.2251 87.8296 25.0786C87.5041 24.924 87.0768 24.6961 86.5479 24.395C86.027 24.0939 85.5672 23.7643 85.1685 23.4062C84.314 22.6494 83.8867 21.7949 83.8867 20.8428C83.8867 19.6628 84.4076 18.7188 85.4492 18.0107C86.4421 17.3434 87.7604 17.0098 89.4043 17.0098C90.6738 17.0098 91.7196 17.262 92.5415 17.7666C93.3716 18.2712 93.7866 18.8978 93.7866 19.6465C93.7866 20.1185 93.5628 20.5498 93.1152 20.9404C92.7246 21.2741 92.3055 21.4897 91.8579 21.5874L91.1621 21.0869ZM97.6929 30.9868C98.0591 30.9054 98.348 30.8363 98.5596 30.7793C98.7793 30.7142 98.9421 30.6084 99.0479 30.4619C99.2269 30.2259 99.3164 29.6156 99.3164 28.6309V18.7432H97.229V17.6201C98.4172 17.4492 99.1007 17.2743 99.2798 17.0952H99.2676C99.4466 16.8511 99.6053 16.3058 99.7437 15.4595C99.882 14.6131 99.9674 13.9906 100 13.5918L101.77 12.8594V17.2539H106.189V18.7432H101.77V28.5942C101.77 29.3511 101.823 29.8353 101.929 30.0469C102.043 30.2503 102.181 30.4009 102.344 30.4985C102.507 30.5962 102.726 30.6694 103.003 30.7183C103.451 30.7996 104.268 30.8485 105.457 30.8647V32H97.6929V30.9868ZM121.545 18.5723C121.716 17.6527 121.802 16.9813 121.802 16.5581C121.802 16.1268 121.749 15.7931 121.643 15.5571C121.545 15.313 121.379 15.1217 121.143 14.9834C120.736 14.7393 119.963 14.6172 118.823 14.6172H116.76V28.7163C116.76 29.1883 116.789 29.5586 116.846 29.8271C116.903 30.0876 117.041 30.2869 117.261 30.4253C117.48 30.5636 117.806 30.6654 118.237 30.7305C118.677 30.7956 119.275 30.8647 120.032 30.938V32H111.121V30.938C112.561 30.7996 113.411 30.645 113.672 30.4741C113.94 30.3032 114.107 30.0876 114.172 29.8271C114.246 29.5586 114.282 29.1883 114.282 28.7163V14.6172H111.938C110.474 14.6172 109.416 15.3333 108.765 16.7656C108.561 17.2051 108.358 17.6771 108.154 18.1816L108.008 18.5601H106.812L108.179 13.3232H123.999L122.717 18.5723H121.545ZM135.144 21.6851C135.6 21.2456 135.828 20.5783 135.828 19.6831C135.828 19.2437 135.62 18.8978 135.205 18.6455C134.855 18.4421 134.322 18.3403 133.606 18.3403C132.06 18.3403 131.287 18.8449 131.287 19.854V29.1313C131.287 29.4813 131.319 29.7702 131.384 29.998C131.458 30.2259 131.616 30.409 131.86 30.5474C132.284 30.7915 133.26 30.938 134.79 30.9868V32H126.636V30.999L126.66 30.9868C127.62 30.8892 128.194 30.7549 128.381 30.584C128.577 30.4049 128.695 30.2015 128.735 29.9736C128.784 29.7376 128.809 29.4243 128.809 29.0337V20.5742C128.809 19.6872 128.719 19.1379 128.54 18.9263C128.369 18.7147 128.158 18.5682 127.905 18.4868C127.653 18.4054 127.319 18.3403 126.904 18.2915V17.2539H129.431C130.432 17.2539 131.144 17.2336 131.567 17.1929C131.991 17.1522 132.324 17.1237 132.568 17.1074C133.301 17.0423 133.895 17.0098 134.351 17.0098C134.814 17.0098 135.291 17.0464 135.779 17.1196C136.267 17.1929 136.698 17.319 137.073 17.498C137.895 17.8887 138.306 18.495 138.306 19.3169C138.306 19.9761 138.037 20.5905 137.5 21.1602C136.995 21.6973 136.434 22.0513 135.815 22.2222L135.144 21.6851ZM141.577 12.3833L143.799 10.1982L145.972 12.3833L143.799 14.5928L141.577 12.3833ZM140.564 30.9868L140.991 30.9258C141.341 30.877 141.626 30.8281 141.846 30.7793C142.065 30.7223 142.236 30.6247 142.358 30.4863C142.57 30.234 142.676 29.6562 142.676 28.7529V20.4766C142.676 19.5488 142.578 18.9914 142.383 18.8042C142.188 18.6089 141.951 18.4868 141.675 18.438C141.398 18.3892 141.028 18.3444 140.564 18.3037V17.2539H147.241V18.3037C146.777 18.3525 146.407 18.4014 146.13 18.4502C145.854 18.499 145.642 18.5926 145.496 18.731C145.26 18.9507 145.142 19.5326 145.142 20.4766V28.7529C145.142 29.6807 145.215 30.23 145.361 30.4009C145.508 30.5718 145.687 30.6857 145.898 30.7427C146.118 30.7996 146.407 30.8566 146.765 30.9136L147.241 30.9868V32H140.564V30.9868ZM157.056 32.293C155.55 32.293 154.277 31.7477 153.235 30.6572V36.0283C153.235 36.834 153.402 37.3385 153.735 37.542C153.971 37.6885 154.594 37.8065 155.603 37.896V38.9092H148.767V37.9082L148.792 37.896C149.613 37.8228 150.114 37.717 150.293 37.5786C150.594 37.3345 150.745 36.8177 150.745 36.0283V20.2935C150.745 19.4959 150.651 19.0036 150.464 18.8164C150.285 18.6292 150.053 18.5031 149.768 18.438C149.491 18.3647 149.113 18.3078 148.633 18.2671V17.2539H151.807C152.311 17.2539 152.881 17.2295 153.516 17.1807C154.818 17.0667 155.819 17.0098 156.519 17.0098C157.218 17.0098 157.898 17.1115 158.557 17.3149C159.216 17.5103 159.806 17.7869 160.327 18.145C160.848 18.495 161.3 18.9141 161.682 19.4023C162.065 19.8825 162.382 20.4115 162.634 20.9893C163.131 22.1123 163.379 23.2638 163.379 24.4438C163.379 25.6157 163.253 26.6574 163 27.5688C162.748 28.4722 162.362 29.2738 161.841 29.9736C160.701 31.5199 159.106 32.293 157.056 32.293ZM160.62 24.749C160.62 20.4521 159.216 18.3037 156.409 18.3037C154.529 18.3037 153.499 18.8245 153.32 19.8662C153.263 20.1673 153.235 20.4847 153.235 20.8184V27.5322C153.235 28.4925 153.589 29.2982 154.297 29.9492C155.021 30.6084 155.839 30.938 156.75 30.938C157.662 30.938 158.354 30.7549 158.826 30.3887C159.306 30.0143 159.676 29.5301 159.937 28.936C160.392 27.9188 160.62 26.5231 160.62 24.749Z" fill="#373737"/>
</svg>
