<svg width="40" height="44" viewBox="0 0 40 44" fill="none" xmlns="http://www.w3.org/2000/svg">
<path d="M0.619355 27.9474L0 25.2631C5.52258 22.3158 9.34194 23.5789 12.2839 24.3684C15.2258 25.1579 18.0645 28.3158 23.9484 31.6842C29.8323 35.0526 35.2 33.3684 36.0774 33.3684C36.7794 33.3684 37.1613 33.614 37.2645 33.7368C36.8103 34.1158 36.0258 34.6316 32.7742 35.5789C29.1018 36.6489 26.1677 34.7368 22.0903 33.7368C18.0129 32.7368 16.2581 34.8421 11.5613 35.6316C7.80387 36.2631 4.21505 34.7719 2.89032 33.9474L3.40645 33.1053C10.0129 34.6842 15.7075 31.6842 16.8258 30.3158C9.6 24.5263 2.75269 26.2807 0.619355 27.9474Z" fill="white"/>
<path d="M1.96129 32.9474L0.722581 29.9474C1.35914 29.4035 3.37548 28.3158 6.34839 28.3158C9.32129 28.3158 12.3699 29.9649 13.5226 30.7895L9.49677 32C5.31613 30.0526 2.89032 31.8421 1.96129 32.9474Z" fill="white"/>
<path d="M13.3677 39.6842C9.44516 41.0316 6.36559 38.8772 5.31613 37.6316C6.8129 38.2105 10.6323 38.5789 14.0387 36.6842C17.4452 34.7895 23.9484 35.3684 25.4968 36.6842C28.4697 38.7053 33.0667 38.1579 34.9935 37.6316C33.4452 39.8947 29.0065 41.1579 24.9806 39.2105C20.9548 37.2632 18.271 38 13.3677 39.6842Z" fill="white"/>
<path d="M15.329 44L14.0387 41.4211C15.2258 40.8421 19.4065 39.7368 21.6258 40.3684C26.1677 41.8421 27.7677 41.9825 29.5226 42.2105C28.3527 42.807 25.569 43.8947 23.7935 43.4737C19.6129 42.2632 16.1892 43.2456 15.329 44Z" fill="white"/>
<path d="M24.8258 30.5789L22.5032 28.8421C23.7247 27.5789 27.1587 24.8842 31.1226 24.2105C35.0865 23.5368 38.6925 24.7017 40 25.3684L39.5355 28.1053C32 25.2105 26.7355 28.4561 24.8258 30.5789Z" fill="white"/>
<path d="M8.87742 22.5789C8.87742 22.5789 8.15484 19.421 8.15484 18.0526C8.08098 13.6842 13.3677 9.05263 13.3677 9.05263C13.3677 9.05263 10.6323 15.5263 11.7677 22.4211L8.87742 22.5789Z" fill="white"/>
<path d="M19.5613 26.1579C16.5677 23.5263 15.6215 23.3333 14.0387 22.5789C13.8151 21.0702 13.5742 16.8211 14.4 11.8947C15.2258 6.96842 18.8387 1.91228 20.5419 0C21.5742 2.26316 22.6237 3.70175 23.4323 4.52632C23.1226 4.77193 22.0181 6.58947 20.0774 11.8947C18.1368 17.2 18.9247 23.614 19.5613 26.1579Z" fill="white"/>
<path d="M25.7548 24.3684C27.0968 14.7895 25.1527 10.7017 23.6903 8.15789C23.1742 9.35088 21.9974 12.5368 21.4194 15.7368C20.8413 18.9368 20.8344 25.2105 20.9032 27.9474L25.7548 24.3684Z" fill="white"/>
<path d="M28.129 23.4737C28.9032 15.4211 27.3204 11.3158 26.3226 9.63158C30.6581 12.2105 32.0516 16.5789 32.1032 18C32.1445 19.1368 31.7075 21.6316 31.4839 22.7368L28.129 23.4737Z" fill="white"/>
<path d="M32.7742 31.6842C30.9987 32.021 28.0086 31.5439 26.7355 31.2632C28.4903 30.5789 30.0387 28.4737 33.8581 28.421C36.9135 28.3789 38.6409 29.4912 39.1226 30.0526L38.0387 32.7368C36.5419 31.421 34.9935 31.2632 32.7742 31.6842Z" fill="white"/>
</svg>
