<svg width="27" height="21" viewBox="0 0 27 21" fill="none" xmlns="http://www.w3.org/2000/svg">
<path d="M0.5 4.09334V17.9246C0.5 18.7282 0.955903 19.4872 1.71875 19.7685C5.64583 21.2194 9.57292 20.2283 13.5 19.2372C17.1021 18.3309 20.7042 17.4201 24.3017 18.3934C25.3399 18.6746 26.5 17.9692 26.5 16.9022V3.07542C26.5 2.27179 26.0441 1.51282 25.2812 1.23155C21.3542 -0.219438 17.4271 0.771697 13.5 1.76283C9.89792 2.66914 6.29583 3.57545 2.69826 2.60217C1.65556 2.3209 0.5 3.02631 0.5 4.09334ZM13.5 14.786C11.5049 14.786 9.88889 12.8662 9.88889 10.5C9.88889 8.13378 11.5049 6.21401 13.5 6.21401C15.4951 6.21401 17.1111 8.13378 17.1111 10.5C17.1111 12.8662 15.4951 14.786 13.5 14.786ZM3.38889 14.786C4.98229 14.786 6.27778 16.0673 6.27778 17.6433H3.38889V14.786ZM6.27778 5.49968C6.27778 7.07567 4.98229 8.35701 3.38889 8.35701V5.49968H6.27778ZM23.6111 12.643V15.5003H20.7222C20.7222 13.9243 22.0177 12.643 23.6111 12.643ZM20.7222 3.35668H23.6111V6.21401C22.0177 6.21401 20.7222 4.93268 20.7222 3.35668Z" fill="white"/>
</svg>
