<svg width="59" height="60" viewBox="0 0 59 60" fill="none" xmlns="http://www.w3.org/2000/svg">
<rect y="0.5" width="59" height="59" rx="4" fill="#F4F4F4"/>
<path d="M21.6868 14.5C18.5472 14.5 16 17.0195 16 20.125V38.875C16 41.9805 18.5472 44.5 21.6868 44.5H38.7473H40.6429C41.6914 44.5 42.5385 43.6621 42.5385 42.625C42.5385 41.5879 41.6914 40.75 40.6429 40.75V37C41.6914 37 42.5385 36.1621 42.5385 35.125V16.375C42.5385 15.3379 41.6914 14.5 40.6429 14.5H38.7473H21.6868ZM21.6868 37H36.8516V40.75H21.6868C20.6383 40.75 19.7912 39.9121 19.7912 38.875C19.7912 37.8379 20.6383 37 21.6868 37ZM23.5824 22.9375C23.5824 22.4219 24.0089 22 24.5302 22H35.9038C36.4251 22 36.8516 22.4219 36.8516 22.9375C36.8516 23.4531 36.4251 23.875 35.9038 23.875H24.5302C24.0089 23.875 23.5824 23.4531 23.5824 22.9375ZM24.5302 25.75H35.9038C36.4251 25.75 36.8516 26.1719 36.8516 26.6875C36.8516 27.2031 36.4251 27.625 35.9038 27.625H24.5302C24.0089 27.625 23.5824 27.2031 23.5824 26.6875C23.5824 26.1719 24.0089 25.75 24.5302 25.75Z" fill="#888888"/>
</svg>
