<svg width="26" height="23" viewBox="0 0 26 23" fill="none" xmlns="http://www.w3.org/2000/svg">
<path d="M7.10156 4.73242L5.82715 8.375H20.1729L18.8984 4.73242C18.6787 4.10742 18.0879 3.6875 17.4238 3.6875H8.57617C7.91211 3.6875 7.32129 4.10742 7.10156 4.73242ZM2.43359 8.60938L4.15234 3.70215C4.81152 1.82227 6.58398 0.5625 8.57617 0.5625H17.4238C19.416 0.5625 21.1885 1.82227 21.8477 3.70215L23.5664 8.60938C24.6992 9.07812 25.5 10.1963 25.5 11.5V18.5312V20.875C25.5 21.7393 24.8018 22.4375 23.9375 22.4375H22.375C21.5107 22.4375 20.8125 21.7393 20.8125 20.875V18.5312H5.1875V20.875C5.1875 21.7393 4.48926 22.4375 3.625 22.4375H2.0625C1.19824 22.4375 0.5 21.7393 0.5 20.875V18.5312V11.5C0.5 10.1963 1.30078 9.07812 2.43359 8.60938ZM6.75 13.0625C6.75 12.6481 6.58538 12.2507 6.29235 11.9576C5.99933 11.6646 5.6019 11.5 5.1875 11.5C4.7731 11.5 4.37567 11.6646 4.08265 11.9576C3.78962 12.2507 3.625 12.6481 3.625 13.0625C3.625 13.4769 3.78962 13.8743 4.08265 14.1674C4.37567 14.4604 4.7731 14.625 5.1875 14.625C5.6019 14.625 5.99933 14.4604 6.29235 14.1674C6.58538 13.8743 6.75 13.4769 6.75 13.0625ZM20.8125 14.625C21.2269 14.625 21.6243 14.4604 21.9174 14.1674C22.2104 13.8743 22.375 13.4769 22.375 13.0625C22.375 12.6481 22.2104 12.2507 21.9174 11.9576C21.6243 11.6646 21.2269 11.5 20.8125 11.5C20.3981 11.5 20.0007 11.6646 19.7076 11.9576C19.4146 12.2507 19.25 12.6481 19.25 13.0625C19.25 13.4769 19.4146 13.8743 19.7076 14.1674C20.0007 14.4604 20.3981 14.625 20.8125 14.625Z" fill="white"/>
</svg>
