<svg width="59" height="60" viewBox="0 0 59 60" fill="none" xmlns="http://www.w3.org/2000/svg">
<rect y="0.5" width="59" height="59" rx="4" fill="#F4F4F4"/>
<path fill-rule="evenodd" clip-rule="evenodd" d="M40 19.5V39.5H20V19.5H40ZM28.4179 24.5H26.4701L22.7722 34.5H24.5294L25.2276 32.5451H29.6543L30.3375 34.5H32.2006L28.4179 24.5ZM35.3198 24.5H33.5696V34.5H35.3198V24.5ZM27.4293 26.1778L29.1726 31.1666H25.7137L27.4293 26.1778ZM41.6667 34.5H45V37.8333H41.6667V34.5ZM21.6667 41.1667H25V44.5H21.6667V41.1667ZM28.3333 41.1667H31.6667V44.5H28.3333V41.1667ZM21.6667 14.5H25V17.8333H21.6667V14.5ZM35 41.1667H38.3333V44.5H35V41.1667ZM28.3333 14.5H31.6667V17.8333H28.3333V14.5ZM35 14.5H38.3333V17.8333H35V14.5ZM41.6667 27.8333H45V31.1667H41.6667V27.8333ZM15 34.5H18.3333V37.8333H15V34.5ZM41.6667 21.1667H45V24.5H41.6667V21.1667ZM15 27.8333H18.3333V31.1667H15V27.8333ZM15 21.1667H18.3333V24.5H15V21.1667Z" fill="#888888"/>
</svg>
