<svg width="25" height="29" viewBox="0 0 25 29" fill="none" xmlns="http://www.w3.org/2000/svg">
<path d="M12.5 14.5C14.3186 14.5 16.0628 13.7625 17.3487 12.4497C18.6347 11.137 19.3571 9.35652 19.3571 7.5C19.3571 5.64348 18.6347 3.86301 17.3487 2.55025C16.0628 1.2375 14.3186 0.5 12.5 0.5C10.6814 0.5 8.93723 1.2375 7.65127 2.55025C6.3653 3.86301 5.64286 5.64348 5.64286 7.5C5.64286 9.35652 6.3653 11.137 7.65127 12.4497C8.93723 13.7625 10.6814 14.5 12.5 14.5ZM10.0518 17.125C4.775 17.125 0.5 21.4891 0.5 26.8758C0.5 27.7727 1.2125 28.5 2.09107 28.5H22.9089C23.7875 28.5 24.5 27.7727 24.5 26.8758C24.5 21.4891 20.225 17.125 14.9482 17.125H10.0518Z" fill="white"/>
</svg>
