<svg width="165" height="44" viewBox="0 0 165 44" fill="none" xmlns="http://www.w3.org/2000/svg">
<path d="M0.619355 27.9474L0 25.2631C5.52258 22.3158 9.34194 23.5789 12.2839 24.3684C15.2258 25.1579 18.0645 28.3158 23.9484 31.6842C29.8323 35.0526 35.2 33.3684 36.0774 33.3684C36.7794 33.3684 37.1613 33.614 37.2645 33.7368C36.8103 34.1158 36.0258 34.6316 32.7742 35.5789C29.1018 36.6489 26.1677 34.7368 22.0903 33.7368C18.0129 32.7368 16.2581 34.8421 11.5613 35.6316C7.80387 36.2631 4.21505 34.7719 2.89032 33.9474L3.40645 33.1053C10.0129 34.6842 15.7075 31.6842 16.8258 30.3158C9.6 24.5263 2.75269 26.2807 0.619355 27.9474Z" fill="white"/>
<path d="M1.96129 32.9474L0.722581 29.9474C1.35914 29.4035 3.37548 28.3158 6.34839 28.3158C9.32129 28.3158 12.3699 29.9649 13.5226 30.7895L9.49677 32C5.31613 30.0526 2.89032 31.8421 1.96129 32.9474Z" fill="white"/>
<path d="M13.3677 39.6842C9.44516 41.0316 6.36559 38.8772 5.31613 37.6316C6.8129 38.2105 10.6323 38.5789 14.0387 36.6842C17.4452 34.7895 23.9484 35.3684 25.4968 36.6842C28.4697 38.7053 33.0667 38.1579 34.9935 37.6316C33.4452 39.8947 29.0065 41.1579 24.9806 39.2105C20.9548 37.2632 18.271 38 13.3677 39.6842Z" fill="white"/>
<path d="M15.329 44L14.0387 41.4211C15.2258 40.8421 19.4065 39.7368 21.6258 40.3684C26.1677 41.8421 27.7677 41.9825 29.5226 42.2105C28.3527 42.807 25.569 43.8947 23.7935 43.4737C19.6129 42.2632 16.1892 43.2456 15.329 44Z" fill="white"/>
<path d="M24.8258 30.5789L22.5032 28.8421C23.7247 27.5789 27.1587 24.8842 31.1226 24.2105C35.0865 23.5368 38.6925 24.7017 40 25.3684L39.5355 28.1053C32 25.2105 26.7355 28.4561 24.8258 30.5789Z" fill="white"/>
<path d="M8.87742 22.5789C8.87742 22.5789 8.15484 19.421 8.15484 18.0526C8.08098 13.6842 13.3677 9.05263 13.3677 9.05263C13.3677 9.05263 10.6323 15.5263 11.7677 22.4211L8.87742 22.5789Z" fill="white"/>
<path d="M19.5613 26.1579C16.5677 23.5263 15.6215 23.3333 14.0387 22.5789C13.8151 21.0702 13.5742 16.8211 14.4 11.8947C15.2258 6.96842 18.8387 1.91228 20.5419 0C21.5742 2.26316 22.6237 3.70175 23.4323 4.52632C23.1226 4.77193 22.0181 6.58947 20.0774 11.8947C18.1368 17.2 18.9247 23.614 19.5613 26.1579Z" fill="white"/>
<path d="M25.7548 24.3684C27.0968 14.7895 25.1527 10.7017 23.6903 8.15789C23.1742 9.35088 21.9974 12.5368 21.4194 15.7368C20.8413 18.9368 20.8344 25.2105 20.9032 27.9474L25.7548 24.3684Z" fill="white"/>
<path d="M28.129 23.4737C28.9032 15.4211 27.3204 11.3158 26.3226 9.63158C30.6581 12.2105 32.0516 16.5789 32.1032 18C32.1445 19.1368 31.7075 21.6316 31.4839 22.7368L28.129 23.4737Z" fill="white"/>
<path d="M32.7742 31.6842C30.9987 32.021 28.0086 31.5439 26.7355 31.2632C28.4903 30.5789 30.0387 28.4737 33.8581 28.421C36.9135 28.3789 38.6409 29.4912 39.1226 30.0526L38.0387 32.7368C36.5419 31.421 34.9935 31.2632 32.7742 31.6842Z" fill="white"/>
<path d="M51.2329 30.4868C52.1688 30.4054 52.7344 30.2671 52.9297 30.0718C53.125 29.8683 53.243 29.6486 53.2837 29.4126C53.3244 29.1685 53.3447 28.8511 53.3447 28.4604V13.4946C53.3447 12.7134 53.1982 12.2129 52.9053 11.9932C52.71 11.8467 52.1525 11.7287 51.2329 11.6392V10.626H57.9346V11.6392C57.0231 11.7287 56.4779 11.8385 56.2988 11.9688C55.9896 12.1885 55.835 12.6971 55.835 13.4946V18.0112C56.5837 17.2137 57.5846 16.6847 58.8379 16.4243C59.2367 16.3429 59.6965 16.3022 60.2173 16.3022C60.7463 16.3022 61.2915 16.404 61.853 16.6074C62.4146 16.8027 62.9232 17.0754 63.3789 17.4253C63.8346 17.7752 64.2375 18.1903 64.5874 18.6704C64.9373 19.1424 65.2262 19.6592 65.4541 20.2207C65.9342 21.3844 66.1743 22.6174 66.1743 23.9194C66.1743 26.0353 65.5924 27.8542 64.4287 29.376C63.6312 30.4095 62.6139 31.1338 61.377 31.5488C60.7503 31.7604 60.1481 31.8662 59.5703 31.8662C58.8216 31.8662 58.0404 31.8255 57.2266 31.7441C55.7048 31.5814 54.7648 31.5 54.4067 31.5H51.2329V30.4868ZM55.835 27.9233C55.835 28.6965 56.0547 29.2865 56.4941 29.6934C57.0638 30.1979 58.0241 30.4502 59.375 30.4502C60.7259 30.4502 61.7594 29.791 62.4756 28.4727C63.1104 27.3333 63.4277 25.8156 63.4277 23.9194C63.4277 21.1688 62.8174 19.293 61.5967 18.292C61.141 17.9176 60.612 17.7305 60.0098 17.7305C59.4076 17.7305 58.8623 17.82 58.374 17.999C57.8857 18.1781 57.4544 18.4222 57.0801 18.7314C56.25 19.4069 55.835 20.2085 55.835 21.1362V27.9233ZM79.6631 29.6812C78.5482 31.0565 76.8758 31.7441 74.646 31.7441C72.4976 31.7441 70.8171 31.0483 69.6045 29.6567C68.4408 28.314 67.8589 26.5399 67.8589 24.3345C67.8589 22.064 68.5059 20.1882 69.7998 18.707C71.0856 17.2422 72.7336 16.5098 74.7437 16.5098C76.2817 16.5098 77.4821 16.8353 78.3447 17.4863C79.1667 18.0967 79.5776 18.9349 79.5776 20.001C79.5776 21.3763 78.9103 22.536 77.5757 23.48C76.0213 24.5786 73.6694 25.1401 70.52 25.1646C70.8049 28.493 72.3104 30.1572 75.0366 30.1572C76.7456 30.1572 78.0558 29.7666 78.9673 28.9854L79.6631 29.6812ZM70.4834 23.8584C73.3805 23.8014 75.3418 23.1138 76.3672 21.7954C76.7415 21.3071 76.9287 20.7008 76.9287 19.9766C76.9287 19.0326 76.5218 18.3815 75.708 18.0234C75.3906 17.8851 74.9959 17.8159 74.5239 17.8159C74.0519 17.8159 73.6328 17.9014 73.2666 18.0723C72.9004 18.235 72.5708 18.4629 72.2778 18.7559C71.9849 19.0407 71.7285 19.3784 71.5088 19.769C71.2891 20.1515 71.106 20.5666 70.9595 21.0142C70.6584 21.9338 70.4997 22.8818 70.4834 23.8584ZM91.1621 20.5869C91.4714 20.1068 91.626 19.6755 91.626 19.293C91.626 18.9023 91.394 18.5605 90.9302 18.2676C90.4744 17.9665 89.9292 17.8159 89.2944 17.8159C88.6597 17.8159 88.1714 17.8729 87.8296 17.9868C87.4878 18.1007 87.1989 18.2594 86.9629 18.4629C86.499 18.8617 86.2671 19.3947 86.2671 20.062C86.2671 20.8677 86.9425 21.6123 88.2935 22.2959C88.6841 22.4993 89.0137 22.6621 89.2822 22.7842C91.3411 23.7119 92.6473 24.3996 93.2007 24.8472C93.7541 25.2866 94.1528 25.7098 94.397 26.1167C94.6493 26.5236 94.7754 27.0282 94.7754 27.6304C94.7754 28.2326 94.6086 28.7982 94.2749 29.3271C93.9412 29.8561 93.4977 30.3037 92.9443 30.6699C91.8213 31.4186 90.4704 31.793 88.8916 31.793C87.4186 31.793 86.1328 31.4919 85.0342 30.8896C83.8298 30.2467 83.2438 29.4289 83.2764 28.436C83.2926 27.8501 83.5449 27.3252 84.0332 26.8613C84.4727 26.4463 84.9976 26.1696 85.6079 26.0312L86.145 26.6538C85.8358 27.0363 85.6812 27.549 85.6812 28.1919C85.6812 28.7534 85.9741 29.2539 86.5601 29.6934C87.2111 30.1898 88.0412 30.438 89.0503 30.438C90.0675 30.438 90.8651 30.2101 91.4429 29.7544C92.0288 29.2987 92.3218 28.6883 92.3218 27.9233C92.3218 27.0282 91.5731 26.2388 90.0757 25.5552C89.6281 25.3517 89.2619 25.193 88.9771 25.0791C88.6922 24.957 88.5132 24.8797 88.4399 24.8472C88.3667 24.8146 88.1632 24.7251 87.8296 24.5786C87.5041 24.424 87.0768 24.1961 86.5479 23.895C86.027 23.5939 85.5672 23.2643 85.1685 22.9062C84.314 22.1494 83.8867 21.2949 83.8867 20.3428C83.8867 19.1628 84.4076 18.2188 85.4492 17.5107C86.4421 16.8434 87.7604 16.5098 89.4043 16.5098C90.6738 16.5098 91.7196 16.762 92.5415 17.2666C93.3716 17.7712 93.7866 18.3978 93.7866 19.1465C93.7866 19.6185 93.5628 20.0498 93.1152 20.4404C92.7246 20.7741 92.3055 20.9897 91.8579 21.0874L91.1621 20.5869ZM97.6929 30.4868C98.0591 30.4054 98.348 30.3363 98.5596 30.2793C98.7793 30.2142 98.9421 30.1084 99.0479 29.9619C99.2269 29.7259 99.3164 29.1156 99.3164 28.1309V18.2432H97.229V17.1201C98.4172 16.9492 99.1007 16.7743 99.2798 16.5952H99.2676C99.4466 16.3511 99.6053 15.8058 99.7437 14.9595C99.882 14.1131 99.9674 13.4906 100 13.0918L101.77 12.3594V16.7539H106.189V18.2432H101.77V28.0942C101.77 28.8511 101.823 29.3353 101.929 29.5469C102.043 29.7503 102.181 29.9009 102.344 29.9985C102.507 30.0962 102.726 30.1694 103.003 30.2183C103.451 30.2996 104.268 30.3485 105.457 30.3647V31.5H97.6929V30.4868ZM121.545 18.0723C121.716 17.1527 121.802 16.4813 121.802 16.0581C121.802 15.6268 121.749 15.2931 121.643 15.0571C121.545 14.813 121.379 14.6217 121.143 14.4834C120.736 14.2393 119.963 14.1172 118.823 14.1172H116.76V28.2163C116.76 28.6883 116.789 29.0586 116.846 29.3271C116.903 29.5876 117.041 29.7869 117.261 29.9253C117.48 30.0636 117.806 30.1654 118.237 30.2305C118.677 30.2956 119.275 30.3647 120.032 30.438V31.5H111.121V30.438C112.561 30.2996 113.411 30.145 113.672 29.9741C113.94 29.8032 114.107 29.5876 114.172 29.3271C114.246 29.0586 114.282 28.6883 114.282 28.2163V14.1172H111.938C110.474 14.1172 109.416 14.8333 108.765 16.2656C108.561 16.7051 108.358 17.1771 108.154 17.6816L108.008 18.0601H106.812L108.179 12.8232H123.999L122.717 18.0723H121.545ZM135.144 21.1851C135.6 20.7456 135.828 20.0783 135.828 19.1831C135.828 18.7437 135.62 18.3978 135.205 18.1455C134.855 17.9421 134.322 17.8403 133.606 17.8403C132.06 17.8403 131.287 18.3449 131.287 19.354V28.6313C131.287 28.9813 131.319 29.2702 131.384 29.498C131.458 29.7259 131.616 29.909 131.86 30.0474C132.284 30.2915 133.26 30.438 134.79 30.4868V31.5H126.636V30.499L126.66 30.4868C127.62 30.3892 128.194 30.2549 128.381 30.084C128.577 29.9049 128.695 29.7015 128.735 29.4736C128.784 29.2376 128.809 28.9243 128.809 28.5337V20.0742C128.809 19.1872 128.719 18.6379 128.54 18.4263C128.369 18.2147 128.158 18.0682 127.905 17.9868C127.653 17.9054 127.319 17.8403 126.904 17.7915V16.7539H129.431C130.432 16.7539 131.144 16.7336 131.567 16.6929C131.991 16.6522 132.324 16.6237 132.568 16.6074C133.301 16.5423 133.895 16.5098 134.351 16.5098C134.814 16.5098 135.291 16.5464 135.779 16.6196C136.267 16.6929 136.698 16.819 137.073 16.998C137.895 17.3887 138.306 17.995 138.306 18.8169C138.306 19.4761 138.037 20.0905 137.5 20.6602C136.995 21.1973 136.434 21.5513 135.815 21.7222L135.144 21.1851ZM141.577 11.8833L143.799 9.69824L145.972 11.8833L143.799 14.0928L141.577 11.8833ZM140.564 30.4868L140.991 30.4258C141.341 30.377 141.626 30.3281 141.846 30.2793C142.065 30.2223 142.236 30.1247 142.358 29.9863C142.57 29.734 142.676 29.1562 142.676 28.2529V19.9766C142.676 19.0488 142.578 18.4914 142.383 18.3042C142.188 18.1089 141.951 17.9868 141.675 17.938C141.398 17.8892 141.028 17.8444 140.564 17.8037V16.7539H147.241V17.8037C146.777 17.8525 146.407 17.9014 146.13 17.9502C145.854 17.999 145.642 18.0926 145.496 18.231C145.26 18.4507 145.142 19.0326 145.142 19.9766V28.2529C145.142 29.1807 145.215 29.73 145.361 29.9009C145.508 30.0718 145.687 30.1857 145.898 30.2427C146.118 30.2996 146.407 30.3566 146.765 30.4136L147.241 30.4868V31.5H140.564V30.4868ZM157.056 31.793C155.55 31.793 154.277 31.2477 153.235 30.1572V35.5283C153.235 36.334 153.402 36.8385 153.735 37.042C153.971 37.1885 154.594 37.3065 155.603 37.396V38.4092H148.767V37.4082L148.792 37.396C149.613 37.3228 150.114 37.217 150.293 37.0786C150.594 36.8345 150.745 36.3177 150.745 35.5283V19.7935C150.745 18.9959 150.651 18.5036 150.464 18.3164C150.285 18.1292 150.053 18.0031 149.768 17.938C149.491 17.8647 149.113 17.8078 148.633 17.7671V16.7539H151.807C152.311 16.7539 152.881 16.7295 153.516 16.6807C154.818 16.5667 155.819 16.5098 156.519 16.5098C157.218 16.5098 157.898 16.6115 158.557 16.8149C159.216 17.0103 159.806 17.2869 160.327 17.645C160.848 17.995 161.3 18.4141 161.682 18.9023C162.065 19.3825 162.382 19.9115 162.634 20.4893C163.131 21.6123 163.379 22.7638 163.379 23.9438C163.379 25.1157 163.253 26.1574 163 27.0688C162.748 27.9722 162.362 28.7738 161.841 29.4736C160.701 31.0199 159.106 31.793 157.056 31.793ZM160.62 24.249C160.62 19.9521 159.216 17.8037 156.409 17.8037C154.529 17.8037 153.499 18.3245 153.32 19.3662C153.263 19.6673 153.235 19.9847 153.235 20.3184V27.0322C153.235 27.9925 153.589 28.7982 154.297 29.4492C155.021 30.1084 155.839 30.438 156.75 30.438C157.662 30.438 158.354 30.2549 158.826 29.8887C159.306 29.5143 159.676 29.0301 159.937 28.436C160.392 27.4188 160.62 26.0231 160.62 24.249Z" fill="white"/>
</svg>
